<?xml version="1.0" encoding="UTF-8"?>
<svg xmlns="http://www.w3.org/2000/svg" xmlns:xlink="http://www.w3.org/1999/xlink" width="537pt" height="336pt" viewBox="0 0 537 336" version="1.1">
<g id="surface1">
<path style=" stroke:none;fill-rule:evenodd;fill:rgb(34.521484%,57.617188%,81.25%);fill-opacity:1;" d="M 134.902344 0.664063 C 82.984375 -0.214844 39.429688 56.101563 39.429688 56.101563 L 45.808594 56.101563 C 137.105469 -30.667969 224.804688 55.277344 164.820313 150.253906 C 132.703125 204.367188 89.585938 212.285156 89.585938 212.285156 C 131.746094 205.414063 157.097656 172.21875 157.097656 172.21875 C 205.171875 133.652344 230.5625 -1.785156 134.902344 0.664063 "/>
<path style=" stroke:none;fill-rule:evenodd;fill:rgb(25.097656%,64.646912%,86.71875%);fill-opacity:1;" d="M 11.273438 105.375 C 11.273438 105.375 24.46875 72.820313 32.832031 66.21875 L 34.589844 68.859375 C 34.589844 68.859375 16.550781 91.738281 11.273438 105.375 "/>
<path style=" stroke:none;fill-rule:evenodd;fill:rgb(16.088867%,21.556091%,47.068787%);fill-opacity:1;" d="M 349.136719 261.746094 L 349.136719 208.476563 C 384.574219 200.972656 378.820313 265.78125 349.136719 261.746094 Z M 420.550781 335.476563 C 424.410156 288.253906 426.726563 239.488281 420.550781 191.492188 L 466.101563 191.492188 C 460.308594 232.796875 459.921875 276.800781 464.171875 315.40625 C 481.796875 320.421875 499.8125 314.632813 517.054688 313.089844 L 515.511719 335.476563 C 488.488281 334.191406 462.238281 333.675781 435.605469 333.933594 Z M 307.828125 335.476563 C 313.234375 287.355469 314.777344 239.230469 307.828125 191.105469 L 372.296875 191.105469 C 444.628906 190.308594 416.441406 289.691406 349.136719 268.695313 C 349.136719 290.957031 351.066406 313.21875 352.609375 335.476563 Z M 249.539063 335.09375 C 254.429688 287.226563 255.847656 238.972656 249.15625 191.492188 L 294.703125 191.492188 C 290.074219 240.257813 289.6875 287.484375 294.703125 335.476563 L 249.539063 335.09375 "/>
<path style=" stroke:none;fill-rule:nonzero;fill:rgb(16.088867%,21.556091%,47.068787%);fill-opacity:1;" d="M 77.3125 319.046875 C 77.3125 319.046875 77.417969 311.945313 79.296875 311.21875 C 79.296875 311.21875 88.277344 304.546875 89.941406 301.730469 C 89.941406 301.730469 95.996094 292.125 98.394531 290.558594 C 98.394531 290.558594 100.777344 285.140625 101.933594 284.828125 L 106.421875 274.496094 C 106.421875 274.496094 117.066406 266.867188 118.632813 263.328125 C 118.632813 263.328125 121.027344 258.121094 122.28125 257.90625 C 122.28125 257.90625 124.0625 240.378906 122.699219 234.429688 C 122.699219 234.429688 121.871094 222.75 120.929688 221.597656 C 120.929688 221.597656 118.535156 207.304688 114.671875 204.691406 C 114.671875 204.691406 130.730469 196.347656 138.558594 189.355469 C 138.558594 189.355469 153.59375 176.835938 156.929688 172.453125 L 160.683594 175.679688 C 160.683594 175.679688 163.296875 175.679688 162.875 180.6875 C 162.875 180.6875 169.449219 187.789063 170.28125 189.246094 L 175.496094 194.773438 C 175.496094 194.773438 180.601563 197.277344 184.570313 205.839844 C 184.570313 205.839844 197.40625 229.21875 197.71875 232.554688 C 197.71875 232.554688 203.871094 226.710938 209.300781 230.046875 C 209.300781 230.046875 213.488281 233.382813 210.769531 237.765625 L 198.34375 253.839844 C 198.34375 253.839844 191.460938 256.65625 189.582031 256.96875 C 189.582031 256.96875 184.160156 258.75 176.960938 267.925781 L 144.40625 298.386719 L 138.976563 299.949219 C 138.976563 299.949219 136.777344 307.269531 137.304688 310.183594 C 137.304688 310.183594 136.785156 315.914063 135.222656 316.960938 C 135.222656 316.960938 129.058594 316.34375 127.601563 313.3125 L 121.449219 305.378906 C 121.449219 305.378906 109.027344 316.972656 101.933594 328.652344 C 101.933594 328.652344 102.65625 332.820313 100.996094 334.070313 C 100.996094 334.070313 81.585938 338.875 78.144531 330.734375 C 78.144531 330.734375 77.625 324.054688 76.6875 324.054688 C 76.6875 324.054688 76.265625 319.046875 77.3125 319.046875 "/>
<path style=" stroke:none;fill-rule:nonzero;fill:rgb(99.609375%,99.609375%,99.609375%);fill-opacity:1;" d="M 81.175781 327.710938 L 81.175781 321.34375 C 81.175781 321.34375 83.25 317.382813 86.90625 318.632813 C 86.90625 318.632813 96.621094 319.789063 96.828125 323.328125 L 97.863281 327.085938 C 97.863281 327.085938 99.320313 329.484375 96.613281 330.421875 C 96.613281 330.421875 86.605469 332.40625 81.175781 327.710938 "/>
<path style=" stroke:none;fill-rule:nonzero;fill:rgb(99.609375%,99.609375%,99.609375%);fill-opacity:1;" d="M 130.945313 310.496094 L 127.710938 305.175781 C 127.710938 305.175781 126.878906 303.285156 129.273438 303.394531 C 129.273438 303.394531 133.441406 302.140625 134.488281 302.140625 C 134.488281 302.140625 135.230469 308.089844 134.390625 311.53125 C 134.390625 311.53125 132.308594 312.589844 130.945313 310.496094 "/>
<path style=" stroke:none;fill-rule:nonzero;fill:rgb(99.609375%,99.609375%,99.609375%);fill-opacity:1;" d="M 139.605469 243.507813 C 139.605469 243.507813 143.988281 239.96875 152.4375 241.003906 C 152.4375 241.003906 160.15625 242.871094 161.203125 244.859375 C 161.203125 244.859375 151.703125 240.574219 145.757813 242.355469 L 148.164063 242.667969 C 148.164063 242.667969 141.171875 242.988281 139.605469 243.507813 "/>
<path style=" stroke:none;fill-rule:nonzero;fill:rgb(99.609375%,99.609375%,99.609375%);fill-opacity:1;" d="M 187.292969 251.539063 C 187.292969 251.539063 192.09375 244.964844 194.804688 244.964844 C 194.804688 244.964844 203.246094 242.140625 198.03125 233.277344 C 198.03125 233.277344 205.230469 227.132813 209.300781 230.988281 C 209.300781 230.988281 210.769531 233.375 210.457031 234.839844 C 210.457031 234.839844 205.132813 240.898438 201.894531 243.089844 C 201.894531 243.089844 194.082031 249.769531 192.300781 249.660156 C 192.300781 249.660156 190.109375 251.648438 187.292969 251.539063 "/>
<path style=" stroke:none;fill-rule:nonzero;fill:rgb(16.088867%,21.556091%,47.068787%);fill-opacity:1;" d="M 58.636719 108.691406 C 58.636719 108.691406 52.484375 99.195313 53.003906 94.292969 C 53.003906 94.292969 51.222656 90.851563 57.171875 82.507813 C 57.171875 82.507813 65.09375 70.40625 79.394531 77.183594 C 79.394531 77.183594 83.679688 78.328125 88.269531 87.71875 C 88.269531 87.71875 94.324219 90.859375 95.15625 90.753906 C 95.15625 90.753906 96.300781 93.355469 90.148438 96.171875 L 91.917969 100.457031 C 91.917969 100.457031 96.613281 99.515625 96.71875 98.785156 L 97.140625 100.867188 L 97.136719 100.871094 L 97.273438 101.535156 L 97.34375 101.492188 L 97.863281 103.898438 C 97.863281 103.898438 105.378906 96.691406 110.070313 91.789063 C 110.070313 91.789063 112.265625 83.964844 113.9375 80.835938 C 113.9375 80.835938 111.734375 68.839844 112.265625 68.421875 C 112.265625 68.421875 117.058594 64.242188 122.90625 65.183594 C 122.90625 65.183594 121.339844 59.351563 118.632813 59.761719 L 118.632813 58.511719 C 118.632813 58.511719 110.070313 59.664063 110.804688 66.648438 C 110.804688 66.648438 107.566406 68.214844 103.605469 65.085938 L 100.996094 57.886719 C 100.996094 57.886719 98.292969 55.996094 95.574219 60.175781 C 95.574219 60.175781 66.152344 66.335938 44.238281 69.671875 C 44.238281 69.671875 12.820313 74.476563 2.703125 70.71875 C 2.703125 70.71875 -1.257813 63.617188 2.1875 59.65625 L 8.445313 59.761719 C 8.445313 59.761719 1.980469 61.015625 1.355469 62.894531 C 1.355469 62.894531 32.03125 65.289063 46.324219 60.28125 C 46.324219 60.28125 90.15625 52.5625 95.574219 51.203125 C 95.574219 51.203125 94.851563 49.226563 93.382813 49.746094 C 93.382813 49.746094 51.007813 56.839844 42.773438 56.523438 C 42.773438 56.523438 86.496094 48.90625 92.757813 49.011719 C 92.757813 49.011719 94.539063 47.976563 97.765625 51.3125 C 97.765625 51.3125 99.234375 50.480469 99.644531 49.746094 C 99.644531 49.746094 99.429688 53.503906 101.308594 53.503906 C 101.308594 53.503906 101.425781 55.585938 102.148438 55.585938 L 104.964844 59.65625 C 104.964844 59.65625 117.59375 55.480469 119.992188 54.539063 C 119.992188 54.539063 119.785156 51.9375 119.363281 51.828125 L 104.230469 56.730469 L 100.789063 50.46875 L 104.125 55.164063 C 104.125 55.164063 114.5625 52.035156 119.570313 50.890625 L 118.007813 44.835938 C 118.007813 44.835938 119.464844 48.496094 119.882813 43.691406 L 120.617188 46.820313 C 120.617188 46.820313 124.160156 46.507813 121.65625 50.265625 C 121.65625 50.265625 122.601563 56.523438 123.121094 57.777344 L 129.792969 61.015625 L 126.457031 63.097656 L 130.320313 63.207031 C 130.320313 63.207031 125.105469 66.648438 126.566406 69.152344 C 126.566406 69.152344 129.792969 72.273438 133.863281 69.878906 C 133.863281 69.878906 135.859375 71.757813 136.582031 71.757813 C 136.582031 71.757813 137.304688 73.644531 134.910156 74.789063 L 130.320313 94.714844 C 130.320313 94.714844 129.167969 100.046875 127.394531 101.394531 L 115.082031 124.765625 C 115.082031 124.765625 132.511719 139.171875 134.390625 143.339844 L 147.226563 163.265625 L 147.117188 165.566406 L 150.453125 167.132813 C 150.453125 167.132813 134.390625 189.882813 112.683594 202.1875 C 112.683594 202.1875 110.070313 197.589844 112.265625 190.703125 C 112.265625 190.703125 109.25 182.359375 109.976563 182.359375 C 109.976563 182.359375 108.714844 177.980469 106.628906 176.726563 L 84.824219 157.320313 L 69.28125 142.8125 C 69.28125 142.8125 66.972656 141.042969 67.1875 129.773438 C 67.1875 129.773438 62.394531 128.414063 63.851563 124.453125 C 63.851563 124.453125 60.515625 119.023438 61.347656 118.085938 C 61.347656 118.085938 65.320313 118.085938 65.839844 117.144531 C 65.839844 117.144531 69.074219 121.019531 71.785156 120.804688 C 71.785156 120.804688 65.308594 115.578125 64.371094 116.207031 C 64.371094 116.207031 59.792969 114.121094 59.265625 112.242188 C 59.265625 112.242188 63.546875 116.324219 62.707031 113.605469 L 59.675781 111.617188 C 59.675781 111.617188 59.363281 108.789063 58.636719 108.691406 "/>
<path style=" stroke:none;fill-rule:nonzero;fill:rgb(16.088867%,21.556091%,47.068787%);fill-opacity:1;" d="M 101.757813 41.765625 L 117.410156 40.199219 L 117.410156 41.6875 C 117.410156 41.6875 114.511719 40.199219 113.496094 42.859375 C 113.496094 42.859375 110.757813 39.652344 109.269531 42.9375 C 109.269531 42.9375 105.59375 40.121094 104.574219 44.035156 C 104.574219 44.035156 102.226563 41.84375 101.757813 41.765625 "/>
<path style=" stroke:none;fill-rule:nonzero;fill:rgb(16.088867%,21.556091%,47.068787%);fill-opacity:1;" d="M 120.382813 41.214844 C 120.382813 41.214844 121.242188 39.183594 124.296875 40.277344 C 124.296875 40.277344 135.015625 39.105469 136.738281 42.703125 C 136.738281 42.703125 138.382813 46.304688 138.382813 47.945313 L 143.703125 48.964844 L 143.078125 54.988281 L 140.339844 56.398438 C 140.339844 56.398438 139.789063 62.578125 139.632813 63.988281 C 139.632813 63.988281 137.910156 54.675781 134.46875 56.867188 C 134.46875 56.867188 131.496094 56.632813 130.398438 55.144531 L 126.253906 53.03125 L 130.398438 53.582031 C 130.398438 53.582031 135.09375 54.441406 132.277344 50.84375 C 132.277344 50.84375 138.773438 51.859375 135.878906 49.199219 L 137.441406 48.652344 C 137.441406 48.652344 136.269531 42.15625 134.9375 41.6875 C 134.9375 41.6875 133.296875 42 133.609375 43.328125 C 133.609375 43.328125 131.417969 39.339844 129.304688 42.46875 C 129.304688 42.46875 127.582031 40.199219 125.46875 41.296875 C 125.46875 41.296875 122.964844 39.964844 120.382813 41.214844 "/>
<path style=" stroke:none;fill-rule:nonzero;fill:rgb(99.609375%,99.609375%,99.609375%);fill-opacity:1;" d="M 60.714844 106.921875 C 60.714844 106.921875 60.246094 110.679688 61.890625 111.929688 C 61.890625 111.929688 70.96875 119.757813 73.546875 120.460938 C 73.546875 120.460938 86.226563 121.476563 97.105469 113.808594 C 97.105469 113.808594 96.714844 107.234375 96.398438 107.078125 L 98.589844 105.355469 L 98.589844 104.339844 L 96.164063 106.140625 L 94.835938 102.851563 L 97.417969 101.367188 L 97.027344 100.347656 C 97.027344 100.347656 86.460938 105.984375 73.316406 108.644531 L 66.664063 110.210938 C 66.664063 110.210938 63.0625 111.148438 62.828125 105.277344 L 62.4375 105.59375 C 62.4375 105.59375 62.046875 111.304688 66.585938 111.304688 C 66.585938 111.304688 90.765625 105.199219 93.894531 103.402344 C 93.894531 103.402344 95.226563 104.417969 95.695313 113.652344 C 95.695313 113.652344 76.757813 123.277344 70.96875 117.488281 L 62.828125 111.539063 C 62.828125 111.539063 60.402344 108.410156 60.714844 106.921875 "/>
<path style=" stroke:none;fill-rule:nonzero;fill:rgb(99.609375%,99.609375%,99.609375%);fill-opacity:1;" d="M 74.835938 119.363281 L 78.515625 108.5625 L 79.765625 108.015625 L 76.167969 119.285156 L 74.835938 119.363281 "/>
<path style=" stroke:none;fill-rule:nonzero;fill:rgb(99.609375%,99.609375%,99.609375%);fill-opacity:1;" d="M 88.375 116.625 C 88.375 116.625 87.515625 107.078125 86.027344 105.746094 L 87.59375 105.511719 C 87.59375 105.511719 89 113.492188 89.472656 116.3125 L 88.375 116.625 "/>
<path style=" stroke:none;fill-rule:nonzero;fill:rgb(99.609375%,99.609375%,99.609375%);fill-opacity:1;" d="M 66.464844 111.773438 C 66.464844 111.773438 66.621094 116.390625 80.394531 113.257813 C 80.394531 113.257813 93.460938 110.832031 98.3125 105.199219 L 98.15625 104.261719 C 98.15625 104.261719 92.054688 110.363281 81.488281 111.460938 C 81.488281 111.460938 71.863281 114.667969 66.464844 111.773438 "/>
<path style=" stroke:none;fill-rule:evenodd;fill:rgb(0%,54.881287%,82.8125%);fill-opacity:1;" d="M 229.714844 154 L 536.496094 154 L 536.496094 29.730469 L 229.714844 29.730469 L 229.714844 154 "/>
<path style=" stroke:none;fill-rule:evenodd;fill:rgb(99.609375%,99.609375%,99.609375%);fill-opacity:1;" d="M 459.570313 84.375 C 462.03125 83.910156 479.066406 84.175781 482.96875 84.175781 C 486.480469 84.175781 491.128906 83.859375 494.351563 84.683594 C 510.957031 88.949219 510.855469 115.019531 492.839844 118.09375 C 490.183594 118.550781 473.4375 118.296875 469.390625 118.296875 C 465.988281 118.296875 461.015625 118.609375 458.015625 117.804688 C 448.265625 115.164063 443.65625 104.609375 446.730469 95.265625 C 448.527344 89.773438 453.109375 85.609375 459.570313 84.375 Z M 516.980469 104.472656 C 518.15625 93.511719 513.433594 84.800781 507.53125 79.925781 C 504.386719 77.324219 500.976563 75.410156 496.035156 74.253906 C 491.808594 73.246094 484.398438 73.679688 479.582031 73.679688 C 473.863281 73.679688 468.144531 73.683594 462.425781 73.679688 C 456.898438 73.664063 452.730469 74.90625 448.746094 77.214844 C 431.890625 86.902344 430.964844 110.652344 444.859375 122.53125 C 453.46875 129.90625 461.839844 128.84375 472.773438 128.84375 C 478.496094 128.84375 484.222656 128.84375 489.933594 128.84375 C 503.742188 128.828125 515.421875 119.078125 516.980469 104.472656 Z M 354.546875 81.183594 C 354.851563 82.957031 357.726563 86.746094 358.757813 88.242188 L 372.320313 108.179688 C 374.96875 112.09375 378.632813 117.714844 381.367188 121.46875 C 384.121094 125.261719 388.851563 129.414063 396.09375 129.085938 C 402.886719 128.769531 406.679688 124.46875 409.589844 120.253906 C 412.546875 115.964844 415.527344 111.464844 418.632813 106.960938 L 434.476563 83.648438 C 437.683594 78.910156 433.664063 73.710938 429.007813 74.609375 C 426.097656 75.1875 424.824219 77.796875 423.316406 80.097656 L 414.304688 93.402344 C 411.285156 97.738281 408.292969 102.328125 405.253906 106.679688 C 403.707031 108.902344 402.304688 111.0625 400.75 113.335938 C 399.492188 115.171875 397.472656 118.527344 394.042969 117.707031 C 391.515625 117.085938 389.761719 113.941406 388.507813 112.050781 C 386.988281 109.785156 385.566406 107.722656 384.003906 105.394531 C 380.984375 100.992188 378.101563 96.796875 374.960938 92.113281 C 371.921875 87.570313 369.089844 83.414063 365.925781 78.816406 C 364.519531 76.761719 362.941406 73.914063 359.09375 74.609375 C 356.347656 75.089844 353.964844 77.769531 354.546875 81.183594 Z M 249.09375 81.015625 C 249.355469 82.988281 252.222656 86.613281 253.257813 88.121094 L 271.308594 114.695313 C 275.792969 121.410156 280.148438 129.453125 290.441406 129.09375 C 299.914063 128.746094 303.828125 120.789063 308.660156 113.636719 L 322.210938 93.710938 C 323.648438 91.535156 325.1875 89.308594 326.730469 87.070313 C 328.457031 84.59375 330.5625 82.152344 330.183594 79.410156 C 329.765625 76.570313 327.175781 74.097656 323.792969 74.582031 C 320.847656 75 319.574219 77.535156 317.980469 79.941406 C 314.910156 84.578125 312.109375 88.59375 308.964844 93.242188 C 305.933594 97.722656 303.03125 102.101563 299.941406 106.53125 C 298.34375 108.796875 296.976563 110.898438 295.414063 113.175781 C 294.085938 115.085938 292.261719 118.363281 288.839844 117.742188 C 286.128906 117.253906 284.589844 114.171875 283.144531 112.101563 C 275.664063 101.453125 267.914063 89.746094 260.554688 78.859375 C 259.050781 76.65625 257.507813 74.011719 253.734375 74.589844 C 251.019531 75 248.636719 77.632813 249.09375 81.015625 Z M 341.375 74.652344 C 335.816406 75.800781 336.71875 80.542969 336.71875 86.355469 L 336.71875 119.355469 C 336.71875 122.128906 336.320313 124.636719 337.679688 126.648438 C 340.28125 130.539063 346.382813 129.609375 347.722656 125.1875 C 348.25 123.464844 347.976563 103.464844 347.976563 100.742188 C 347.976563 95.261719 347.972656 89.746094 347.972656 84.257813 C 347.972656 81.464844 348.351563 79.039063 347.023438 77.011719 C 346.042969 75.519531 343.929688 74.109375 341.375 74.652344 Z M 341.609375 54.796875 C 340.652344 55.1875 340.0625 56.027344 339.382813 56.6875 L 335.347656 60.714844 C 332.699219 63.382813 334.867188 64.421875 338.171875 67.75 C 338.878906 68.464844 339.480469 69.039063 340.183594 69.765625 C 342.835938 72.417969 343.800781 70.464844 347.285156 66.988281 C 352.089844 62.21875 351.949219 63.203125 344.464844 55.78125 C 343.835938 55.164063 342.980469 54.242188 341.609375 54.796875 "/>
</g>
</svg>
